HIERARCHY
ROOT Hips
{
  OFFSET 5.84602e-005 68.8428 3.50346
  CHANNELS 6 Xposition Yposition Zposition Zrotation Xrotation Yrotation
  JOINT Spine
  {
    OFFSET 0 8.597 -4.6522
    CHANNELS 3 Zrotation Xrotation Yrotation
    JOINT Spine1
    {
      OFFSET 0 7.8454 0.4098
      CHANNELS 3 Zrotation Xrotation Yrotation
      JOINT Spine2
      {
        OFFSET 0 9.7078 -2.1609
        CHANNELS 3 Zrotation Xrotation Yrotation
        JOINT Neck
        {
          OFFSET 0 21.8761 -0.4549
          CHANNELS 3 Zrotation Xrotation Yrotation
          JOINT Head
          {
            OFFSET 0 12.3537 3.3602
            CHANNELS 3 Zrotation Xrotation Yrotation
            End Site
            {
              OFFSET 0.0001 18.9506 0.5657
            }
          }
        }
        JOINT LeftShoulder
        {
          OFFSET 2.2086 21.1115 7.2329
          CHANNELS 3 Zrotation Xrotation Yrotation
          JOINT LeftArm
          {
            OFFSET 13.1193 3.0282 -4.8998
            CHANNELS 3 Zrotation Xrotation Yrotation
            JOINT LeftForeArm
            {
              OFFSET 27.4081 -0.0973053 -0.2375
              CHANNELS 3 Zrotation Xrotation Yrotation
              JOINT LeftHand
              {
                OFFSET 22.8641 0.0662994 -0.1369
                CHANNELS 3 Zrotation Xrotation Yrotation
                JOINT LeftHandIndex1
                {
                  OFFSET 8.8614 0.775009 2.4612
                  CHANNELS 3 Zrotation Xrotation Yrotation
                  JOINT LeftHandIndex2
                  {
                    OFFSET 3.3146 -0.808304 0.5841
                    CHANNELS 3 Zrotation Xrotation Yrotation
                    JOINT LeftHandIndex3
                    {
                      OFFSET 2.2628 -0.552002 0.3989
                      CHANNELS 3 Zrotation Xrotation Yrotation
                      End Site
                      {
                        OFFSET 1.6102 -0.4807 0.2612
                      }
                    }
                  }
                }
                JOINT LeftHandMiddle1
                {
                  OFFSET 8.9937 0.895004 0.2143
                  CHANNELS 3 Zrotation Xrotation Yrotation
                  JOINT LeftHandMiddle2
                  {
                    OFFSET 4.0984 0.0113983 -0.0242
                    CHANNELS 3 Zrotation Xrotation Yrotation
                    JOINT LeftHandMiddle3
                    {
                      OFFSET 2.2716 0.00689697 -0.0138001
                      CHANNELS 3 Zrotation Xrotation Yrotation
                      End Site
                      {
                        OFFSET 2.0404 -0.1441 0.0027
                      }
                    }
                  }
                }
                JOINT LeftHandRing1
                {
                  OFFSET 8.5234 0.597198 -2.0164
                  CHANNELS 3 Zrotation Xrotation Yrotation
                  JOINT LeftHandRing2
                  {
                    OFFSET 3.7188 -0.188293 -0.2328
                    CHANNELS 3 Zrotation Xrotation Yrotation
                    JOINT LeftHandRing3
                    {
                      OFFSET 2.1191 -0.106598 -0.1332
                      CHANNELS 3 Zrotation Xrotation Yrotation
                      End Site
                      {
                        OFFSET 1.8737 -0.2304 -0.0886
                      }
                    }
                  }
                }
                JOINT LeftHandPinky1
                {
                  OFFSET 7.9094 -0.601089 -3.4825
                  CHANNELS 3 Zrotation Xrotation Yrotation
                  JOINT LeftHandPinky2
                  {
                    OFFSET 2.2874 -0.477005 -0.6314
                    CHANNELS 3 Zrotation Xrotation Yrotation
                    JOINT LeftHandPinky3
                    {
                      OFFSET 1.6774 -0.349396 -0.4633
                      CHANNELS 3 Zrotation Xrotation Yrotation
                      End Site
                      {
                        OFFSET 1.4888 -0.4091 -0.3416
                      }
                    }
                  }
                }
                JOINT LeftHandThumb1
                {
                  OFFSET 1.833 -1.3875 1.3896
                  CHANNELS 3 Zrotation Xrotation Yrotation
                  JOINT LeftHandThumb2
                  {
                    OFFSET 3.4129 -1.121 2.5732
                    CHANNELS 3 Zrotation Xrotation Yrotation
                    JOINT LeftHandThumb3
                    {
                      OFFSET 2.2474 -0.804199 1.6192
                      CHANNELS 3 Zrotation Xrotation Yrotation
                      End Site
                      {
                        OFFSET 1.6527 -0.5689 1.1317
                      }
                    }
                  }
                }
              }
            }
          }
        }
        JOINT RightShoulder
        {
          OFFSET -2.2086 21.1115 7.2329
          CHANNELS 3 Zrotation Xrotation Yrotation
          JOINT RightArm
          {
            OFFSET -13.1216 3.0287 -4.9007
            CHANNELS 3 Zrotation Xrotation Yrotation
            JOINT RightForeArm
            {
              OFFSET -27.4081 -0.0973053 -0.2375
              CHANNELS 3 Zrotation Xrotation Yrotation
              JOINT RightHand
              {
                OFFSET -22.8641 0.0664063 -0.1369
                CHANNELS 3 Zrotation Xrotation Yrotation
                JOINT RightHandIndex1
                {
                  OFFSET -8.8614 0.774994 2.4612
                  CHANNELS 3 Zrotation Xrotation Yrotation
                  JOINT RightHandIndex2
                  {
                    OFFSET -3.3146 -0.808304 0.5841
                    CHANNELS 3 Zrotation Xrotation Yrotation
                    JOINT RightHandIndex3
                    {
                      OFFSET -2.2628 -0.552002 0.3989
                      CHANNELS 3 Zrotation Xrotation Yrotation
                      End Site
                      {
                        OFFSET -1.6102 -0.4807 0.2612
                      }
                    }
                  }
                }
                JOINT RightHandMiddle1
                {
                  OFFSET -8.9937 0.894989 0.2143
                  CHANNELS 3 Zrotation Xrotation Yrotation
                  JOINT RightHandMiddle2
                  {
                    OFFSET -4.0984 0.0113983 -0.0242
                    CHANNELS 3 Zrotation Xrotation Yrotation
                    JOINT RightHandMiddle3
                    {
                      OFFSET -2.2716 0.00691223 -0.0138001
                      CHANNELS 3 Zrotation Xrotation Yrotation
                      End Site
                      {
                        OFFSET -2.0404 -0.1441 0.0027
                      }
                    }
                  }
                }
                JOINT RightHandRing1
                {
                  OFFSET -8.5234 0.597198 -2.0164
                  CHANNELS 3 Zrotation Xrotation Yrotation
                  JOINT RightHandRing2
                  {
                    OFFSET -3.7188 -0.188309 -0.2328
                    CHANNELS 3 Zrotation Xrotation Yrotation
                    JOINT RightHandRing3
                    {
                      OFFSET -2.1191 -0.106598 -0.1332
                      CHANNELS 3 Zrotation Xrotation Yrotation
                      End Site
                      {
                        OFFSET -1.8737 -0.2304 -0.0886
                      }
                    }
                  }
                }
                JOINT RightHandPinky1
                {
                  OFFSET -7.9094 -0.601105 -3.4825
                  CHANNELS 3 Zrotation Xrotation Yrotation
                  JOINT RightHandPinky2
                  {
                    OFFSET -2.2874 -0.477005 -0.6314
                    CHANNELS 3 Zrotation Xrotation Yrotation
                    JOINT RightHandPinky3
                    {
                      OFFSET -1.6774 -0.349396 -0.4633
                      CHANNELS 3 Zrotation Xrotation Yrotation
                      End Site
                      {
                        OFFSET -1.4888 -0.4091 -0.3416
                      }
                    }
                  }
                }
                JOINT RightHandThumb1
                {
                  OFFSET -1.833 -1.38751 1.3896
                  CHANNELS 3 Zrotation Xrotation Yrotation
                  JOINT RightHandThumb2
                  {
                    OFFSET -3.41299 -1.12099 2.5732
                    CHANNELS 3 Zrotation Xrotation Yrotation
                    JOINT RightHandThumb3
                    {
                      OFFSET -2.24741 -0.804108 1.6192
                      CHANNELS 3 Zrotation Xrotation Yrotation
                      End Site
                      {
                        OFFSET -1.6527 -0.5689 1.1317
                      }
                    }
                  }
                }
              }
            }
          }
        }
      }
    }
  }
  JOINT RightUpLeg
  {
    OFFSET -9.1966 3.8861 -0.7581
    CHANNELS 3 Zrotation Xrotation Yrotation
    JOINT RightLeg
    {
      OFFSET -0.7359 -41.0265 0
      CHANNELS 3 Zrotation Xrotation Yrotation
      JOINT RightFoot
      {
        OFFSET 0 -40.2855 0
        CHANNELS 3 Zrotation Xrotation Yrotation
        JOINT RightToeBase
        {
          OFFSET 0 -5.6122 11.7359
          CHANNELS 3 Zrotation Xrotation Yrotation
          End Site
          {
            OFFSET 0 0 7.8731
          }
        }
      }
    }
  }
  JOINT LeftUpLeg
  {
    OFFSET 9.1965 3.8864 -0.7581
    CHANNELS 3 Zrotation Xrotation Yrotation
    JOINT LeftLeg
    {
      OFFSET 0.7359 -41.0268 0
      CHANNELS 3 Zrotation Xrotation Yrotation
      JOINT LeftFoot
      {
        OFFSET 0 -40.2855 0
        CHANNELS 3 Zrotation Xrotation Yrotation
        JOINT LeftToeBase
        {
          OFFSET 0 -5.6122 11.7359
          CHANNELS 3 Zrotation Xrotation Yrotation
          End Site
          {
            OFFSET 0 0 7.8731
          }
        }
      }
    }
  }
}
MOTION
Frames:	5
Frame Time:	0.0333333
-0.000299984 2.23071 6.29312 -180 -89.9981 -180 -0.0986756 5.47922 -0.148262 -0.184305 10.9587 -0.288992 -0.184305 10.9587 -0.288992 -10.393 8.28585 0.925171 7.66791 -10.628 7.63485 -9.17726 3.25884 0.0455716 -63.3254 4.35743 -25.3638 -11.0325 -0.520399 -62.0106 -11.193 21.8796 -4.7123 -2.52821e-006 7.56713e-008 -7.04719e-007 -3.18055e-015 -6.36111e-015 -3.18055e-015 -1.2007e-007 -3.55102e-007 2.03807e-007 -2.52821e-006 7.56713e-008 -7.04719e-007 -0.0146099 -8.83562e-005 7.6008e-007 -2.52948e-006 7.57535e-008 -7.04707e-007 -2.52821e-006 7.56713e-008 -7.04719e-007 -0.0187684 -0.00117978 5.47186e-005 -1.20066e-007 -3.55135e-007 2.0375e-007 -2.52821e-006 7.56713e-008 -7.04719e-007 -0.0122835 -0.00325241 0.000670975 -2.52929e-006 7.54805e-008 -7.04581e-007 -2.52821e-006 7.56713e-008 -7.04719e-007 -3.18055e-015 -6.36111e-015 -3.18055e-015 -1.2007e-007 -3.55102e-007 2.03807e-007 10.7045 4.17328 0.970816 63.0174 4.27379 25.5114 10.1337 -2.29845 60.703 10.3395 23.5584 4.827 -1.29649e-007 3.48109e-007 2.09909e-007 -2.59298e-007 6.96219e-007 4.19819e-007 -2.59298e-007 6.96219e-007 4.19819e-007 -1.29649e-007 3.48109e-007 2.09909e-007 0.0150142 -9.09473e-005 3.95375e-006 9.07909e-007 3.84286e-007 1.78926e-006 -1.29649e-007 3.48109e-007 2.09909e-007 0.0189963 -0.00119322 -5.72127e-005 -2.59289e-007 6.96288e-007 4.19706e-007 -1.29649e-007 3.48109e-007 2.09909e-007 0.0122436 -0.0032393 -0.000680886 -2.59287e-007 6.96261e-007 4.19752e-007 -1.29649e-007 3.48109e-007 2.09909e-007 -2.59298e-007 6.96219e-007 4.19819e-007 -2.59298e-007 6.96219e-007 4.19819e-007 5.20306 0.52066 7.47043 -2.55654 12.7837 0.0216603 -3.89246 11.4011 -9.99225 2.33688e-007 -8.06653e-009 3.56714e-007 -5.11415 0.768154 -10.5987 1.85789 12.4821 0.132649 3.60002 11.2426 13.0675 -1.77747e-007 9.1611e-009 1.17731e-007 
-0.000299984 2.23071 6.29312 -180 -89.9981 -180 -0.0984516 5.42556 -0.148357 -0.183964 10.8514 -0.28926 -0.183964 10.8514 -0.28926 -10.3251 8.35101 0.925431 7.60714 -10.5014 7.57427 -9.16177 3.45667 0.194316 -63.4983 4.46378 -25.3756 -11.0325 -0.52041 -62.0106 -11.3626 21.8637 -4.11959 1.19271e-014 -4.77083e-015 -0 -1.21194e-007 -3.54799e-007 2.0357e-007 -7.95139e-016 9.54166e-015 -3.18055e-015 1.19271e-014 -4.77083e-015 -0 -0.0145979 -8.75842e-005 3.40659e-006 -1.59028e-015 -3.18055e-015 -0 1.19271e-014 -4.77083e-015 -0 -0.0187602 -0.00117333 6.26484e-005 -7.15625e-015 7.95139e-015 -3.18055e-015 1.19271e-014 -4.77083e-015 -0 -0.0122888 -0.00325776 0.000678892 -1.59028e-015 -1.59028e-015 6.36111e-015 1.19271e-014 -4.77083e-015 -0 -1.21194e-007 -3.54799e-007 2.0357e-007 -7.95139e-016 9.54166e-015 -3.18055e-015 10.5795 4.29537 0.754016 63.2115 4.39558 25.5117 10.2015 -2.17871 60.8176 10.5995 23.4638 4.17327 7.41259e-007 -5.69713e-007 5.03876e-006 -7.08882e-007 -1.72313e-007 9.98045e-007 -2.60872e-007 6.96113e-007 4.18842e-007 7.41259e-007 -5.69713e-007 5.03876e-006 0.0149957 -9.06972e-005 5.32265e-006 -2.60867e-007 6.96167e-007 4.18751e-007 7.41259e-007 -5.69713e-007 5.03876e-006 0.0189822 -0.00118938 -5.81038e-005 -2.60863e-007 6.96182e-007 4.18729e-007 7.41259e-007 -5.69713e-007 5.03876e-006 0.0123261 -0.00326656 -0.000676484 -2.60861e-007 6.96155e-007 4.18774e-007 7.41259e-007 -5.69713e-007 5.03876e-006 -7.08882e-007 -1.72313e-007 9.98045e-007 -2.60872e-007 6.96113e-007 4.18842e-007 5.20306 0.52066 7.47043 -2.55654 12.7837 0.0216603 -3.89246 11.4011 -9.99225 2.33688e-007 -8.06653e-009 3.56714e-007 -5.11415 0.768154 -10.5987 1.85789 12.4821 0.132649 3.60002 11.2426 13.0675 -1.77747e-007 9.1611e-009 1.17731e-007 
-0.000299984 2.23071 6.29312 -180 -89.9981 -180 -0.0982263 5.37195 -0.148455 -0.183619 10.7441 -0.289534 -0.183619 10.7441 -0.289534 -10.2574 8.41669 0.925754 7.54652 -10.3747 7.51383 -9.14679 3.65448 0.343027 -63.6713 4.57015 -25.3872 -11.0325 -0.520414 -62.0106 -11.5319 21.8463 -3.52706 2.44626e-007 7.08984e-007 -4.06653e-007 3.58864e-007 -2.08643e-007 -3.64924e-006 2.44626e-007 7.08984e-007 -4.06653e-007 2.44626e-007 7.08984e-007 -4.06653e-007 -0.0146299 -8.87379e-005 -5.77617e-006 2.44622e-007 7.09036e-007 -4.06562e-007 2.44626e-007 7.08984e-007 -4.06653e-007 -0.0187764 -0.00117768 5.52449e-005 2.44617e-007 7.0905e-007 -4.06539e-007 2.44626e-007 7.08984e-007 -4.06653e-007 -0.0122991 -0.00325838 0.000674291 2.44615e-007 7.09025e-007 -4.06583e-007 2.44626e-007 7.08984e-007 -4.06653e-007 3.58864e-007 -2.08643e-007 -3.64924e-006 2.44626e-007 7.08984e-007 -4.06653e-007 10.455 4.4179 0.537464 63.4057 4.51738 25.5113 10.269 -2.05884 60.9322 10.8581 23.3665 3.52055 -5.27321e-007 6.85612e-008 3.82864e-006 -1.3122e-007 3.47999e-007 2.08929e-007 5.92869e-007 -1.92407e-007 5.29232e-006 -5.27321e-007 6.85612e-008 3.82864e-006 0.0150304 -9.06664e-005 -2.16682e-006 -5.27169e-007 6.90625e-008 3.82863e-006 -5.27321e-007 6.85612e-008 3.82864e-006 0.019008 -0.00119184 -6.50567e-005 -5.27093e-007 6.91842e-008 3.82863e-006 -5.27321e-007 6.85612e-008 3.82864e-006 0.0123049 -0.00326094 -0.000684075 -5.27091e-007 6.8937e-008 3.82864e-006 -5.27321e-007 6.85612e-008 3.82864e-006 -1.3122e-007 3.47999e-007 2.08929e-007 5.92869e-007 -1.92407e-007 5.29232e-006 5.20306 0.52066 7.47043 -2.55654 12.7837 0.0216603 -3.89246 11.4011 -9.99225 2.33688e-007 -8.06653e-009 3.56714e-007 -5.11415 0.768154 -10.5987 1.85789 12.4821 0.132649 3.60002 11.2426 13.0675 -1.77747e-007 9.1611e-009 1.17731e-007 
-0.000299984 2.23071 6.29312 -180 -89.9981 -180 -0.0979994 5.31835 -0.148554 -0.183273 10.6369 -0.289813 -0.183273 10.6369 -0.289813 -10.1894 8.482 0.925993 7.48604 -10.2479 7.45354 -9.13231 3.85234 0.491721 -63.8442 4.67657 -25.3985 -11.0325 -0.520417 -62.0106 -11.701 21.8272 -2.93475 2.28425e-007 -5.62065e-007 -3.44268e-006 -7.95139e-016 -4.77083e-015 3.18055e-015 2.28425e-007 -5.62065e-007 -3.44268e-006 2.28425e-007 -5.62065e-007 -3.44268e-006 -0.0146031 -8.70901e-005 4.67603e-007 2.2829e-007 -5.61627e-007 -3.44275e-006 2.28425e-007 -5.62065e-007 -3.44268e-006 -0.0187834 -0.00117673 5.78785e-005 2.28219e-007 -5.61512e-007 -3.44277e-006 2.28425e-007 -5.62065e-007 -3.44268e-006 -0.0122588 -0.00324467 0.000683564 2.28213e-007 -5.61728e-007 -3.44274e-006 2.28425e-007 -5.62065e-007 -3.44268e-006 -7.95139e-016 -4.77083e-015 3.18055e-015 2.28425e-007 -5.62065e-007 -3.44268e-006 10.3309 4.5409 0.321146 63.5999 4.63918 25.5106 10.3362 -1.93883 61.0465 11.1152 23.2664 2.86893 2.79077e-006 -2.63533e-007 2.85266e-006 -2.7835e-006 -1.056e-006 1.39267e-007 2.79077e-006 -2.63533e-007 2.85267e-006 2.79077e-006 -2.63533e-007 2.85266e-006 0.0149891 -9.17601e-005 -2.973e-007 2.79113e-006 -2.63162e-007 2.8527e-006 2.79077e-006 -2.63533e-007 2.85266e-006 0.0190068 -0.00119439 -5.64168e-005 3.88432e-006 -4.98074e-007 4.36333e-006 2.79077e-006 -2.63533e-007 2.85266e-006 0.012269 -0.00324918 -0.000678402 2.79114e-006 -2.63289e-007 2.8526e-006 2.79077e-006 -2.63533e-007 2.85266e-006 -2.7835e-006 -1.056e-006 1.39267e-007 2.79077e-006 -2.63533e-007 2.85267e-006 5.20306 0.52066 7.47043 -2.55654 12.7837 0.0216603 -3.89246 11.4011 -9.99225 2.33688e-007 -8.06653e-009 3.56714e-007 -5.11415 0.768154 -10.5987 1.85789 12.4821 0.132649 3.60002 11.2426 13.0675 -1.77747e-007 9.1611e-009 1.17731e-007 
-0.000299984 2.23071 6.29312 -180 -89.9981 -180 -0.097771 5.26477 -0.148656 -0.182923 10.5298 -0.290096 -0.182923 10.5298 -0.290096 -10.1216 8.54734 0.92628 7.42571 -10.121 7.3934 -9.11835 4.05026 0.640397 -64.0171 4.783 -25.4094 -11.0325 -0.520413 -62.0106 -11.8698 21.8065 -2.34266 -4.54744e-007 -3.17629e-007 -4.90014e-006 -1.24533e-007 -3.53866e-007 2.02819e-007 7.99551e-007 1.10543e-007 1.25794e-006 -4.54744e-007 -3.17629e-007 -4.90014e-006 -0.0145732 -8.98726e-005 -4.38538e-007 3.18055e-015 1.59028e-015 -0 -4.54744e-007 -3.17629e-007 -4.90014e-006 -0.0187412 -0.00117611 5.75496e-005 -3.18055e-015 4.77083e-015 -6.36111e-015 -4.54744e-007 -3.17629e-007 -4.90014e-006 -0.0122802 -0.00325065 0.000682869 -7.95139e-016 -4.77083e-015 1.59028e-014 -4.54744e-007 -3.17629e-007 -4.90014e-006 -1.24533e-007 -3.53866e-007 2.02819e-007 7.99551e-007 1.10543e-007 1.25794e-006 10.2073 4.66437 0.105066 63.7942 4.76095 25.5094 10.4032 -1.81868 61.1607 11.372 23.1638 2.21841 1.32776e-007 -3.47874e-007 -2.07933e-007 1.59028e-015 -9.54166e-015 -0 1.32776e-007 -3.47874e-007 -2.07933e-007 1.32776e-007 -3.47874e-007 -2.07933e-007 0.0150043 -9.37012e-005 -2.06206e-006 1.32773e-007 -3.47901e-007 -2.07888e-007 1.32776e-007 -3.47874e-007 -2.07933e-007 0.0190406 -0.00119098 -6.85727e-005 1.3277e-007 -3.47908e-007 -2.07877e-007 1.32776e-007 -3.47874e-007 -2.07933e-007 0.0122387 -0.00323953 -0.00067388 -9.36524e-007 -1.38665e-007 -1.76536e-006 1.32776e-007 -3.47874e-007 -2.07933e-007 1.59028e-015 -9.54166e-015 -0 1.32776e-007 -3.47874e-007 -2.07933e-007 5.20306 0.52066 7.47043 -2.55654 12.7837 0.0216603 -3.89246 11.4011 -9.99225 2.33688e-007 -8.06653e-009 3.56714e-007 -5.11415 0.768154 -10.5987 1.85789 12.4821 0.132649 3.60002 11.2426 13.0675 -1.77747e-007 9.1611e-009 1.17731e-007 
